<!DOCTYPE svg PUBLIC "-//W3C//DTD SVG 1.1//EN" "http://www.w3.org/Graphics/SVG/1.1/DTD/svg11.dtd">
<svg xmlns="http://www.w3.org/2000/svg" viewBox="0 0 512 512">
<path fill="#ababb3" stroke="#ababb3" d="M155.774 52.299 66.047 104.5l.227 146.46.226 146.461 99 57.252c54.45 31.489 99.555 57.157 100.233 57.04.678-.117 41.509-23.613 90.736-52.213l89.502-52-.236-146.431-.235-146.432L347 57.7C292.825 26.385 247.825.614 247 .431c-.825-.183-41.877 23.158-91.226 51.868" fill-rule="evenodd" style="--darkreader-inline-fill: #454b4e; --darkreader-inline-stroke: #b5afa6;" data-darkreader-inline-fill="" data-darkreader-inline-stroke=""/>
<path fill="#8b8b93" stroke="#8b8b93" d="M66 250.859v145.86l99.246 57.307c54.585 31.519 99.72 57.307 100.3 57.307 1.137 0 177.131-101.926 179.207-103.788.996-.892 1.202-31.061 1-146.819l-.253-145.695-89.5 52.018c-49.225 28.611-90.217 51.839-91.093 51.62-.876-.22-45.745-25.885-99.709-57.034C111.234 130.486 66.839 105 66.541 105c-.298 0-.541 65.637-.541 145.859" fill-rule="evenodd" style="--darkreader-inline-fill: #575f62; --darkreader-inline-stroke: #a1998d;" data-darkreader-inline-fill="" data-darkreader-inline-stroke=""/>
<path fill="#fbfbfb" stroke="#fbfbfb" d="m355.5 167.781-89 51.747-.254 112.841c-.235 103.95-.383 112.792-1.889 112.215-.899-.345-14.284-7.985-29.746-16.978-15.461-8.993-35.086-20.32-43.611-25.171-8.525-4.851-39.458-22.695-68.74-39.655-61.145-35.414-56.265-32.885-56.245-29.137.023 4.287-2.178 2.854 54.985 35.788 29.425 16.952 54.233 31.461 55.129 32.241 2.417 2.105 74.243 43.261 82.597 47.328l7.189 3.5.043 29.333c.023 16.134.412 29.184.863 29 .452-.183 40.716-23.508 89.476-51.833l88.655-51.5.024-145.75c.013-80.162-.089-145.742-.226-145.733-.137.009-40.3 23.303-89.25 51.764M88.509 224.576c-.419 41.991-.366 74.952.123 75.422.477.459 33.493 19.602 73.368 42.541 39.875 22.938 74.412 42.819 76.75 44.179l4.25 2.472-.017-75.345-.018-75.345L172.8 198c-38.591-22.275-73.176-42.19-76.855-44.256l-6.69-3.755-.746 74.587" fill-rule="evenodd" style="--darkreader-inline-fill: #1a1c1e; --darkreader-inline-stroke: #e5e3e0;" data-darkreader-inline-fill="" data-darkreader-inline-stroke=""/>
<path fill="#3c3c44" stroke="#3c3c44" d="m89.244 225.539.256 74.759 73.5 42.388c40.425 23.313 74.738 43.058 76.25 43.877l2.75 1.488-.004-74.775-.004-74.776-74.973-43.273c-41.235-23.799-75.661-43.536-76.502-43.859-1.366-.524-1.502 7.421-1.273 74.171m268.506 151.83L285 419.386v3.807c0 2.094.234 3.807.52 3.807.405 0 143.992-82.576 145.293-83.556.172-.13.172-2.004 0-4.164l-.313-3.928-72.75 42.017m-.479 18.426L285.042 437.5l-.021 4.161-.021 4.162 73-42.144 73-42.143v-3.768c0-2.072-.337-3.748-.75-3.723-.413.025-33.253 18.812-72.979 41.75m.229 18.1-72 41.706-.313 4.32-.314 4.32 3.314-2.001c1.822-1.1 34.7-20.106 73.063-42.234L431 379.773v-3.886c0-2.138-.337-3.845-.75-3.793-.413.052-33.15 18.863-72.75 41.801m.5 18.083-72.5 41.883-.31 4.126-.311 4.127 2.811-1.466c5.722-2.985 141.84-81.785 142.628-82.57.45-.448.675-2.427.5-4.399l-.318-3.584-72.5 41.883m-182-34.143v3.721l36.25 20.908c19.938 11.499 37.262 21.551 38.5 22.337 2.192 1.392 2.25 1.33 2.237-2.436l-.012-3.865-22.238-12.766a12546.692 12546.692 0 0 1-38.487-22.193L176 394.115v3.72" fill-rule="evenodd" style="--darkreader-inline-fill: #303436; --darkreader-inline-stroke: #c0bab2;" data-darkreader-inline-fill="" data-darkreader-inline-stroke=""/>
</svg>